<?xml version="1.0" encoding="UTF-8"?>
<svg version="1.1" xmlns="http://www.w3.org/2000/svg" width="1468" height="1468">
<path d="M0 0 C1.16982422 0.6813501 1.16982422 0.6813501 2.36328125 1.37646484 C5.73959429 3.34728579 9.10642804 5.33354758 12.46875 7.328125 C18.09867855 10.66001908 23.7691917 13.92147673 29.4375 17.1875 C31.09833618 18.14450806 31.09833618 18.14450806 32.79272461 19.12084961 C35.06337068 20.42889477 37.33412358 21.73675448 39.60498047 23.04443359 C45.0716998 26.19332054 50.53574887 29.34683264 56 32.5 C58.16665311 33.7500235 60.33331979 35.00002347 62.5 36.25 C92.83333333 53.75 123.16666667 71.25 153.5 88.75 C154.57266113 89.36883057 155.64532227 89.98766113 156.75048828 90.62524414 C158.91557071 91.87435518 161.08060982 93.12354129 163.24560547 94.37280273 C168.68615706 97.51202309 174.12747216 100.64990563 179.5703125 103.78515625 C190.02206199 109.80747329 200.46299548 115.84669337 210.875 121.9375 C219.55262241 127.01275123 228.26605568 132.02258767 237 137 C246.72115617 142.5400173 256.40894658 148.13374809 266.06689453 153.78344727 C276.59084625 159.93766742 287.15380137 166.02369996 297.71777344 172.10888672 C303.14659942 175.23680148 308.57319281 178.36858448 314 181.5 C316.16665583 182.75001879 318.3333225 184.00001878 320.5 185.25 C385.5 222.75 385.5 222.75 388.7512207 224.62573242 C390.91378583 225.8733474 393.07638339 227.12090616 395.23901367 228.3684082 C400.71870371 231.52943449 406.19779358 234.69149309 411.67578125 237.85546875 C413.88797907 239.13288483 416.10021838 240.41022905 418.3125 241.6875 C419.39499023 242.31253418 420.47748047 242.93756836 421.59277344 243.58154297 C427.44147173 246.95592827 433.29831946 250.31520721 439.16723633 253.65429688 C442.57014528 255.59201533 445.9681738 257.5381409 449.36425781 259.48779297 C451.19566203 260.53852637 453.02844632 261.58685652 454.86230469 262.63330078 C476.34172557 274.91998578 476.34172557 274.91998578 485 283 C486.00933594 283.89138672 486.00933594 283.89138672 487.0390625 284.80078125 C499.98903525 296.84786745 509.31310925 313.00120274 515.3125 329.5 C515.65825073 330.44045166 515.65825073 330.44045166 516.01098633 331.39990234 C521.14624723 346.41530715 521.44072634 361.033382 521.41891479 376.73538208 C521.42651156 379.13145143 521.43540342 381.52751695 521.44547093 383.92357719 C521.46428816 389.11268521 521.47396333 394.30172534 521.47536659 399.4908638 C521.47748404 407.20746183 521.49671795 414.92395301 521.51919528 422.64051521 C521.55877586 436.42542539 521.58141276 450.21032388 521.59674322 463.99528006 C521.61019357 476.05770791 521.62917611 488.12011121 521.6536293 500.18252182 C521.65524481 500.98368524 521.65686031 501.78484865 521.65852476 502.61028975 C521.66508651 505.86272339 521.6716687 509.11515698 521.6782849 512.36759051 C521.74019105 542.85488074 521.78473795 573.34217482 521.82150623 603.82950454 C521.85426285 630.89988521 521.90254592 657.97019663 521.96386719 685.04052734 C522.03275922 715.47626806 522.09185027 745.91200202 522.13524354 776.3477906 C522.13989776 779.59356366 522.14457624 782.83933669 522.14926529 786.08510971 C522.15041121 786.88426298 522.15155713 787.68341626 522.15273777 788.5067863 C522.17019553 800.56132583 522.19511765 812.61583508 522.22369003 824.67035294 C522.25614094 838.37878587 522.2777753 852.08718866 522.28521352 865.79565896 C522.28967579 873.46265682 522.30239035 881.12953422 522.32714417 888.79649401 C522.34470031 894.52628267 522.34639684 900.2559897 522.34199072 905.98579954 C522.34264334 908.29984111 522.34836637 910.61388812 522.35973106 912.92790188 C522.41340583 924.42758907 522.28280368 934.90448365 519 946 C518.71161747 947.45496472 518.43709095 948.91288128 518.1875 950.375 C516.70843433 957.17617375 513.66656693 963.59444248 511 970 C510.67 970.91265625 510.34 971.8253125 510 972.765625 C508.94035024 975.13327994 507.85559834 976.2268727 506 978 C504.86132214 979.70663825 503.7604156 981.43877089 502.6875 983.1875 C499.68057469 987.98591975 496.53069556 992.57332391 493 997 C492.23300781 997.96421875 491.46601562 998.9284375 490.67578125 999.921875 C480.40739546 1012.13174632 465.10004447 1019.40022772 451.44335938 1027.06054688 C445.93638655 1030.16231886 440.46986702 1033.33340931 435 1036.5 C432.83353946 1037.75035722 430.66687241 1039.00035668 428.5 1040.25 C427.4275 1040.86875 426.355 1041.4875 425.25 1042.125 C389.49999998 1062.75000001 389.49999998 1062.75000001 386.24951172 1064.62524414 C384.08442929 1065.87435518 381.91939018 1067.12354129 379.75439453 1068.37280273 C374.31384294 1071.51202309 368.87252784 1074.64990563 363.4296875 1077.78515625 C352.97793801 1083.80747329 342.53700452 1089.84669337 332.125 1095.9375 C322.85500223 1101.35921178 313.54168248 1106.70204915 304.21154785 1112.01922607 C295.0871716 1117.22045129 285.99867226 1122.48027878 276.93310547 1127.78344727 C266.40915375 1133.93766742 255.84619863 1140.02369996 245.28222656 1146.10888672 C239.85340058 1149.23680148 234.42680719 1152.36858448 229 1155.5 C226.83334417 1156.75001879 224.6666775 1158.00001878 222.5 1159.25 C221.4275 1159.86875 220.355 1160.4875 219.25 1161.125 C131.49999998 1211.75000001 131.49999998 1211.75000001 128.24609375 1213.62719727 C126.0923828 1214.86976019 123.93873633 1216.11243489 121.78515625 1217.35522461 C116.76315738 1220.25314623 111.74057193 1223.15003349 106.71557617 1226.04275513 C104.94954478 1227.05947198 103.18372569 1228.07655658 101.41796875 1229.09375 C99.21265845 1230.36400873 97.00695784 1231.63359018 94.80078125 1232.90234375 C90.148039 1235.58318116 85.51057661 1238.28230283 80.9140625 1241.05859375 C75.7930794 1244.14576546 70.59128422 1247.07762115 65.375 1250 C56.31707112 1255.09632437 47.32184271 1260.29063721 38.35522461 1265.5456543 C29.81297543 1270.5444622 21.22052103 1275.451774 12.61901855 1280.34753418 C5.8888355 1284.17995505 -0.81910866 1288.03925928 -7.4375 1292.0625 C-11.99480305 1294.82128648 -16.57897508 1297.50231274 -21.25 1300.0625 C-22.28640625 1300.63097656 -23.3228125 1301.19945312 -24.390625 1301.78515625 C-27 1303 -27 1303 -30 1303 C-30 1303.66 -30 1304.32 -30 1305 C-33.51975069 1305.81723775 -37.04097863 1306.62792922 -40.5625 1307.4375 C-41.55314453 1307.66759766 -42.54378906 1307.89769531 -43.56445312 1308.13476562 C-77.46863917 1315.90682156 -107.47567187 1309.21854035 -137 1292 C-137.70318359 1291.59120605 -138.40636719 1291.18241211 -139.13085938 1290.76123047 C-142.52724369 1288.78165662 -145.912383 1286.78375493 -149.29296875 1284.77734375 C-154.98087802 1281.4091607 -160.70974834 1278.1123209 -166.4375 1274.8125 C-167.54432129 1274.17473633 -168.65114258 1273.53697266 -169.79150391 1272.87988281 C-172.06255262 1271.57158614 -174.33371243 1270.26348228 -176.60498047 1268.95556641 C-182.0716998 1265.80667946 -187.53574887 1262.65316736 -193 1259.5 C-195.16665311 1258.2499765 -197.33331979 1256.99997653 -199.5 1255.75 C-229.83333333 1238.25 -260.16666667 1220.75 -290.5 1203.25 C-291.57266113 1202.63116943 -292.64532227 1202.01233887 -293.75048828 1201.37475586 C-295.91557071 1200.12564482 -298.08060982 1198.87645871 -300.24560547 1197.62719727 C-305.68615706 1194.48797691 -311.12747216 1191.35009437 -316.5703125 1188.21484375 C-332.71469431 1178.91282764 -348.84992658 1169.59337356 -364.890625 1160.11328125 C-365.64400146 1159.66831299 -366.39737793 1159.22334473 -367.17358398 1158.76489258 C-368.52051752 1157.96835535 -369.86651934 1157.17023846 -371.21118164 1156.36987305 C-374.84359523 1154.22031337 -378.51568498 1152.163745 -382.2265625 1150.15234375 C-388.23308004 1146.89291331 -394.15050525 1143.48971037 -400.0625 1140.0625 C-401.77670433 1139.0709794 -403.49091009 1138.07946127 -405.2052002 1137.08808899 C-406.38100558 1136.40800405 -407.55670499 1135.72773586 -408.7322998 1135.04728699 C-412.69521586 1132.75352725 -416.66113304 1130.46503983 -420.62890625 1128.1796875 C-431.43338157 1121.95645215 -442.22788656 1115.71661646 -453 1109.4375 C-453.9605127 1108.87796631 -454.92102539 1108.31843262 -455.91064453 1107.74194336 C-460.29364996 1105.18358455 -464.66066189 1102.60444773 -469 1099.97265625 C-473.33922588 1097.35858217 -477.76191811 1094.93045311 -482.21826172 1092.52294922 C-486.8891478 1089.96572723 -491.47179932 1087.26021632 -496.0625 1084.5625 C-498.18330004 1083.32111267 -500.30440427 1082.08024491 -502.42578125 1080.83984375 C-503.51068848 1080.20546387 -504.5955957 1079.57108398 -505.71337891 1078.91748047 C-522.55553292 1069.09143103 -539.48706136 1059.41907998 -556.421875 1049.75390625 C-557.49719482 1049.1400708 -558.57251465 1048.52623535 -559.68041992 1047.89379883 C-561.97421365 1046.58520443 -564.26861565 1045.27772424 -566.5637207 1043.97143555 C-573.64260981 1039.93926096 -580.68568898 1035.85241004 -587.6875 1031.6875 C-593.18098808 1028.41989155 -598.67630852 1025.16456057 -604.25 1022.03515625 C-616.90026669 1014.9193042 -628.44583049 1007.15832636 -638 996 C-638 995.34 -638 994.68 -638 994 C-638.66 994 -639.32 994 -640 994 C-641.4375 992.20703125 -641.4375 992.20703125 -643 989.8125 C-643.515625 989.03519531 -644.03125 988.25789063 -644.5625 987.45703125 C-646 985 -646 985 -647.0625 982.26171875 C-647.77772993 979.83821336 -647.77772993 979.83821336 -650 979 C-662.49307063 957.33344608 -665.4580462 935.70666621 -665.38095093 911.20214844 C-665.38441174 908.79925703 -665.38917913 906.39636721 -665.39513266 903.99348068 C-665.40501478 898.7893928 -665.40567449 893.58538993 -665.39799118 888.38130188 C-665.38659674 880.64236688 -665.39246922 872.90351013 -665.4016161 865.16457558 C-665.41737968 851.33914595 -665.41605759 837.51375801 -665.40737936 823.68832445 C-665.39982235 811.58920891 -665.39786741 799.49010863 -665.4014473 787.39099121 C-665.40167645 786.58734535 -665.40190561 785.78369949 -665.40214171 784.95570073 C-665.40307577 781.69315571 -665.40403098 778.43061071 -665.405021 775.16806571 C-665.41419084 744.58456674 -665.40588896 714.00109426 -665.38973031 683.41759938 C-665.37549429 656.26666664 -665.3767682 629.11577612 -665.39111328 601.96484375 C-665.40718926 571.43604002 -665.41354043 540.90725968 -665.40427649 510.3784523 C-665.40331439 507.12197114 -665.40237586 503.86548996 -665.4014473 500.60900879 C-665.40121006 499.80722406 -665.40097283 499.00543933 -665.40072841 498.17935809 C-665.39732098 486.0900653 -665.40129751 474.00078947 -665.40888596 461.91149902 C-665.41747451 448.1606494 -665.41529627 434.40984786 -665.39904372 420.65900421 C-665.39025504 412.97022622 -665.38963055 405.28155245 -665.40098225 397.59277724 C-665.40853228 391.84318823 -665.40030399 386.0937062 -665.38605852 380.34413385 C-665.38271789 378.02468226 -665.38438854 375.70521665 -665.39168589 373.38577414 C-665.43606156 358.10434243 -664.63812832 343.99040319 -659.3125 329.5 C-659.05831299 328.79915283 -658.80412598 328.09830566 -658.54223633 327.3762207 C-649.68465332 303.82051133 -633.06002446 282.40492764 -611.0625 269.9375 C-610.11793945 269.39077637 -609.17337891 268.84405273 -608.20019531 268.28076172 C-606.17989776 267.11307587 -604.15687398 265.95009596 -602.13134766 264.79150391 C-598.981479 262.98940378 -595.83944589 261.17431078 -592.69921875 259.35546875 C-587.24267511 256.19724839 -581.77958376 253.05055918 -576.31445312 249.90722656 C-570.87349435 246.77635076 -565.43694752 243.63783458 -560 240.5 C-557.83335502 239.24996242 -555.66668834 237.99996244 -553.5 236.75 C-552.4275 236.13125 -551.355 235.5125 -550.25 234.875 C-384.5 139.25 -384.5 139.25 -381.24780273 137.3737793 C-379.08840605 136.1279423 -376.92906331 134.88201182 -374.76977539 133.63598633 C-369.24232403 130.44651047 -363.71384879 127.25883115 -358.18359375 124.07421875 C-344.3727194 116.12253731 -344.3727194 116.12253731 -330.625 108.0625 C-322.11151285 103.02668201 -313.5148776 98.13680796 -304.92285156 93.23681641 C-293.67863297 86.82347787 -282.46519612 80.35750449 -271.25732422 73.88085938 C-267.90339437 71.94421753 -264.5476497 70.01075427 -261.19140625 68.078125 C-247.37646431 60.12477001 -247.37646431 60.12477001 -233.625 52.0625 C-225.11151285 47.02668201 -216.5148776 42.13680796 -207.92285156 37.23681641 C-196.66837546 30.81762731 -185.44469219 24.34577712 -174.2265625 17.86328125 C-170.96475993 15.9796495 -167.70138156 14.09877679 -164.4375 12.21875 C-162.81026001 11.28095703 -162.81026001 11.28095703 -161.15014648 10.32421875 C-158.97840436 9.07313987 -156.80604725 7.82312788 -154.63305664 6.57421875 C-149.25000488 3.4751207 -143.88810446 0.34666128 -138.55859375 -2.84375 C-90.86720444 -31.31611105 -46.79285746 -27.3143016 0 0 Z " fill="#659AD2" transform="translate(807,91)"/>
<path d="M0 0 C8.31565538 16.6792396 14.32872899 33.51888442 14.27009296 52.37528801 C14.27498782 53.36334228 14.27988267 54.35139655 14.28492585 55.36939186 C14.29884908 58.66442531 14.29875396 61.95930342 14.29866028 65.25436401 C14.30581531 67.64697947 14.31382962 70.03959248 14.32262725 72.43220246 C14.33972012 77.62614927 14.35068026 82.82007141 14.35616112 88.0140419 C14.36432527 95.73789787 14.38381536 103.46169686 14.40544782 111.18552536 C14.44590764 125.78406637 14.4729814 140.38261358 14.49588916 154.98119126 C14.51365061 166.25513941 14.53495433 177.52907587 14.55875206 188.80301285 C14.56215794 190.4236853 14.56556254 192.04435776 14.56896585 193.66503022 C14.57409732 196.10733033 14.57922991 198.54963045 14.58436991 200.99193055 C14.63205581 223.69384952 14.67567615 246.39577341 14.71085072 269.09771538 C14.71284044 270.38097278 14.71284044 270.38097278 14.71487036 271.69015458 C14.72158042 276.0260305 14.72825126 280.36190649 14.73490671 284.6977825 C14.73688949 285.98942306 14.73688949 285.98942306 14.73891232 287.30715736 C14.74158478 289.04849679 14.74425534 290.78983622 14.746924 292.53117565 C14.78854573 319.62775172 14.84348133 346.72427212 14.90893555 373.82080078 C14.98247848 404.27555438 15.04593481 434.73030503 15.0945732 465.18510926 C15.09979427 468.43319143 15.10504973 471.68127354 15.11032677 474.92935562 C15.1122654 476.12896453 15.1122654 476.12896453 15.11424319 477.35280797 C15.13394723 489.41792266 15.16153102 501.48300296 15.19312477 513.54809189 C15.22904914 527.27125792 15.25439769 540.99439678 15.26570032 554.71760617 C15.27233499 562.39347363 15.28727147 570.06921779 15.31428096 577.74504118 C15.33352665 583.48159401 15.33691239 589.21806998 15.33420344 594.95465042 C15.3355492 597.27150492 15.3419749 599.58836334 15.35405228 601.90518676 C15.41125532 613.41260656 15.28727187 623.89731112 12 635 C11.71158984 636.45495924 11.43705933 637.91287588 11.1875 639.375 C9.70843433 646.17617375 6.66656693 652.59444248 4 659 C3.67 659.91265625 3.34 660.8253125 3 661.765625 C1.94035024 664.13327994 0.85559834 665.2268727 -1 667 C-2.13867786 668.70663825 -3.2395844 670.43877089 -4.3125 672.1875 C-7.31942531 676.98591975 -10.46930444 681.57332391 -14 686 C-14.76699219 686.96421875 -15.53398438 687.9284375 -16.32421875 688.921875 C-26.59260454 701.13174632 -41.89995553 708.40022772 -55.55664062 716.06054688 C-61.06361345 719.16231886 -66.53013298 722.33340931 -72 725.5 C-74.16646054 726.75035722 -76.33312759 728.00035668 -78.5 729.25 C-80.10875 730.178125 -80.10875 730.178125 -81.75 731.125 C-117.49999999 751.74999999 -117.49999999 751.74999999 -120.75048828 753.62524414 C-122.91557071 754.87435518 -125.08060982 756.12354129 -127.24560547 757.37280273 C-132.68615706 760.51202309 -138.12747216 763.64990563 -143.5703125 766.78515625 C-154.02206199 772.80747329 -164.46299548 778.84669337 -174.875 784.9375 C-184.14499777 790.35921178 -193.45831752 795.70204915 -202.78845215 801.01922607 C-211.9128284 806.22045129 -221.00132774 811.48027878 -230.06689453 816.78344727 C-240.59084625 822.93766742 -251.15380137 829.02369996 -261.71777344 835.10888672 C-267.14659942 838.23680148 -272.57319281 841.36858448 -278 844.5 C-280.16665583 845.75001879 -282.3333225 847.00001878 -284.5 848.25 C-286.10875 849.178125 -286.10875 849.178125 -287.75 850.125 C-375.5 900.75 -375.5 900.75 -378.75390625 902.62719727 C-380.9076172 903.86976019 -383.06126367 905.11243489 -385.21484375 906.35522461 C-390.23684262 909.25314623 -395.25942807 912.15003349 -400.28442383 915.04275513 C-402.05045522 916.05947198 -403.81627431 917.07655658 -405.58203125 918.09375 C-407.78734155 919.36400873 -409.99304216 920.63359018 -412.19921875 921.90234375 C-416.851961 924.58318116 -421.48942339 927.28230283 -426.0859375 930.05859375 C-431.2069206 933.14576546 -436.40871578 936.07762115 -441.625 939 C-450.68292888 944.09632437 -459.67815729 949.29063721 -468.64477539 954.5456543 C-477.18702457 959.5444622 -485.77947897 964.451774 -494.38098145 969.34753418 C-501.1111645 973.17995505 -507.81910866 977.03925928 -514.4375 981.0625 C-518.99480305 983.82128648 -523.57897508 986.50231274 -528.25 989.0625 C-529.80460938 989.91521484 -529.80460938 989.91521484 -531.390625 990.78515625 C-534 992 -534 992 -537 992 C-537 992.66 -537 993.32 -537 994 C-540.51975069 994.81723775 -544.04097863 995.62792922 -547.5625 996.4375 C-548.55314453 996.66759766 -549.54378906 996.89769531 -550.56445312 997.13476562 C-584.46863917 1004.90682156 -614.47567187 998.21854035 -644 981 C-644.70318359 980.59120605 -645.40636719 980.18241211 -646.13085938 979.76123047 C-649.52724369 977.78165662 -652.912383 975.78375493 -656.29296875 973.77734375 C-661.98087802 970.4091607 -667.70974834 967.1123209 -673.4375 963.8125 C-674.54432129 963.17473633 -675.65114258 962.53697266 -676.79150391 961.87988281 C-679.06255262 960.57158614 -681.33371243 959.26348228 -683.60498047 957.95556641 C-689.0716998 954.80667946 -694.53574887 951.65316736 -700 948.5 C-702.16665311 947.2499765 -704.33331979 945.99997653 -706.5 944.75 C-736.83333333 927.25 -767.16666667 909.75 -797.5 892.25 C-798.57266113 891.63116943 -799.64532227 891.01233887 -800.75048828 890.37475586 C-802.91557071 889.12564482 -805.08060982 887.87645871 -807.24560547 886.62719727 C-812.68615706 883.48797691 -818.12747216 880.35009437 -823.5703125 877.21484375 C-839.71469431 867.91282764 -855.84992658 858.59337356 -871.890625 849.11328125 C-872.64400146 848.66831299 -873.39737793 848.22334473 -874.17358398 847.76489258 C-875.52051752 846.96835535 -876.86651934 846.17023846 -878.21118164 845.36987305 C-881.84359523 843.22031337 -885.51568498 841.163745 -889.2265625 839.15234375 C-895.23308004 835.89291331 -901.15050525 832.48971037 -907.0625 829.0625 C-908.77670433 828.0709794 -910.49091009 827.07946127 -912.2052002 826.08808899 C-913.38100558 825.40800405 -914.55670499 824.72773586 -915.7322998 824.04728699 C-919.69521586 821.75352725 -923.66113304 819.46503983 -927.62890625 817.1796875 C-938.43338157 810.95645215 -949.22788656 804.71661646 -960 798.4375 C-961.44076904 797.59819946 -961.44076904 797.59819946 -962.91064453 796.74194336 C-967.29364996 794.18358455 -971.66066189 791.60444773 -976 788.97265625 C-980.33922588 786.35858217 -984.76191811 783.93045311 -989.21826172 781.52294922 C-993.8891478 778.96572723 -998.47179932 776.26021632 -1003.0625 773.5625 C-1005.18330004 772.32111267 -1007.30440427 771.08024491 -1009.42578125 769.83984375 C-1010.51068848 769.20546387 -1011.5955957 768.57108398 -1012.71337891 767.91748047 C-1029.55553292 758.09143103 -1046.48706136 748.41907998 -1063.421875 738.75390625 C-1065.03485474 737.83315308 -1065.03485474 737.83315308 -1066.68041992 736.89379883 C-1068.97421365 735.58520443 -1071.26861565 734.27772424 -1073.5637207 732.97143555 C-1080.64260981 728.93926096 -1087.68568898 724.85241004 -1094.6875 720.6875 C-1100.18098808 717.41989155 -1105.67630852 714.16456057 -1111.25 711.03515625 C-1123.90026669 703.9193042 -1135.44583049 696.15832636 -1145 685 C-1145 684.34 -1145 683.68 -1145 683 C-1145.66 683 -1146.32 683 -1147 683 C-1148.4375 681.20703125 -1148.4375 681.20703125 -1150 678.8125 C-1150.515625 678.03519531 -1151.03125 677.25789063 -1151.5625 676.45703125 C-1153 674 -1153 674 -1154.0625 671.26171875 C-1154.77772993 668.83821336 -1154.77772993 668.83821336 -1157 668 C-1157 667.01 -1157 666.02 -1157 665 C-1156.1219873 664.73155273 -1155.24397461 664.46310547 -1154.33935547 664.18652344 C-1151.14799229 663.0525839 -1148.48848908 661.72070877 -1145.5703125 660.015625 C-1144.5405127 659.41758057 -1143.51071289 658.81953613 -1142.44970703 658.20336914 C-1141.35255371 657.55875732 -1140.25540039 656.91414551 -1139.125 656.25 C-1137.96107166 655.5716745 -1136.79684117 654.89386723 -1135.63232422 654.21655273 C-1132.65332543 652.48216421 -1129.67806456 650.74148059 -1126.70410156 648.99847412 C-1122.18069042 646.34809866 -1117.65221817 643.7063649 -1113.125 641.0625 C-1112.15449707 640.49499023 -1111.18399414 639.92748047 -1110.18408203 639.34277344 C-1101.89038013 634.50015122 -1093.55378736 629.7344412 -1085.20953369 624.97976685 C-1077.11292157 620.36515971 -1069.04211199 615.70915114 -1061 611 C-1052.36502443 605.94369077 -1043.69393681 600.95392878 -1035 596 C-1025.27875494 590.46014067 -1015.59105132 584.86625068 -1005.93310547 579.21655273 C-998.67788243 574.97382709 -991.40643928 570.76006757 -984.125 566.5625 C-983.04750488 565.94125244 -981.97000977 565.32000488 -980.85986328 564.67993164 C-975.35861973 561.50922982 -969.85560736 558.34161733 -964.3515625 555.17578125 C-962.1509844 553.90895364 -959.95046308 552.64202739 -957.75 551.375 C-956.68402588 550.76205078 -955.61805176 550.14910156 -954.51977539 549.51757812 C-949.18236337 546.44129756 -943.86635939 543.33468307 -938.58203125 540.16796875 C-937.5672168 539.56098145 -936.55240234 538.95399414 -935.50683594 538.32861328 C-933.58855563 537.17796322 -931.67365266 536.02165794 -929.76269531 534.85888672 C-928.91416992 534.34986816 -928.06564453 533.84084961 -927.19140625 533.31640625 C-926.08067749 532.64266968 -926.08067749 532.64266968 -924.94750977 531.95532227 C-923 531 -923 531 -920 531 C-918.56317584 533.08059603 -917.34173223 535.1061515 -916.125 537.3125 C-903.3226633 559.54487684 -887.40916995 579.65259294 -870.18359375 598.59765625 C-868.68778196 600.24331681 -867.20122468 601.89742339 -865.72265625 603.55859375 C-859.21781345 610.86403259 -852.53446124 617.79333076 -845.109375 624.16796875 C-842.82370454 626.15311587 -840.60298622 628.2003983 -838.375 630.25 C-832.17410997 635.83553453 -825.63479898 640.94491507 -819 646 C-818.12432373 646.66902344 -818.12432373 646.66902344 -817.23095703 647.3515625 C-743.98824966 703.00056205 -655.21922738 729.31736068 -533.1640625 725.03125 C-508.50648976 721.58588913 -484.79871072 716.29680593 -461 709 C-459.50871582 708.54971436 -459.50871582 708.54971436 -457.98730469 708.09033203 C-442.8779848 703.48658515 -428.43678737 697.37634843 -414 691 C-413.19578613 690.64824707 -412.39157227 690.29649414 -411.56298828 689.93408203 C-378.51142171 675.38489031 -348.25730076 654.51396479 -321 631 C-320.26007812 630.36191406 -319.52015625 629.72382812 -318.7578125 629.06640625 C-316.82835634 627.38878673 -314.912668 625.69672162 -313 624 C-312.2575 623.3503125 -311.515 622.700625 -310.75 622.03125 C-300.89748426 613.315563 -291.46011248 604.08209483 -283 594 C-282.17113281 593.03707031 -281.34226562 592.07414063 -280.48828125 591.08203125 C-264.0798117 571.97902649 -250.0263361 551.53404296 -237 530 C-238.09284302 529.58379395 -238.09284302 529.58379395 -239.20776367 529.15917969 C-241.82694348 528.07184335 -244.21122742 526.85102985 -246.67578125 525.453125 C-247.57337158 524.94539551 -248.47096191 524.43766602 -249.39575195 523.91455078 C-250.35827881 523.36524902 -251.32080566 522.81594727 -252.3125 522.25 C-253.32723389 521.67362793 -254.34196777 521.09725586 -255.38745117 520.50341797 C-264.5780878 515.26959599 -273.71188214 509.93975958 -282.83984375 504.59765625 C-289.17086977 500.89487032 -295.52063453 497.2250559 -301.875 493.5625 C-302.95354248 492.94076904 -304.03208496 492.31903809 -305.14331055 491.6784668 C-308.42860776 489.78518248 -311.71423989 487.89248083 -315 486 C-328.66757989 478.12796066 -342.32525729 470.24059156 -355.94165039 462.28027344 C-364.5625613 457.24435913 -373.21145989 452.25764594 -381.87133789 447.2890625 C-386.57118671 444.58601276 -391.25487824 441.86991116 -395.8671875 439.01953125 C-396.91990845 438.370448 -396.91990845 438.370448 -397.99389648 437.70825195 C-399.24410613 436.93105216 -400.48893475 436.14509241 -401.72680664 435.34838867 C-403.47876991 434.22395413 -403.47876991 434.22395413 -406 433 C-409.97180013 434.32393338 -410.95549908 436.76877411 -413 440.1875 C-423.09570109 456.39928623 -435.97966833 472.11240045 -451 484 C-451.95003906 484.76441406 -452.90007813 485.52882813 -453.87890625 486.31640625 C-473.11535539 501.59093275 -494.59311627 513.48894098 -518 521 C-519.26046143 521.40774658 -519.26046143 521.40774658 -520.54638672 521.82373047 C-523.16969669 522.65786145 -525.80046117 523.46041578 -528.4375 524.25 C-529.19804688 524.48436768 -529.95859375 524.71873535 -530.7421875 524.96020508 C-545.80186722 529.26760731 -561.33269687 530.5065846 -576.92724609 530.39111328 C-579.50021307 530.37499867 -582.07161034 530.39110481 -584.64453125 530.41015625 C-600.88372351 530.43260857 -616.76642522 528.5242686 -632.3125 523.6875 C-633.32755615 523.37901123 -634.3426123 523.07052246 -635.38842773 522.75268555 C-663.69649463 513.99619517 -688.86202592 499.60375863 -711 480 C-711.9178125 479.20464844 -712.835625 478.40929687 -713.78125 477.58984375 C-718.96834231 473.03551421 -723.62943126 468.33696939 -728 463 C-728.42506836 462.49259277 -728.85013672 461.98518555 -729.28808594 461.46240234 C-748.88502311 438.03888409 -762.94307981 411.54045813 -771 382 C-771.2695752 381.02063477 -771.53915039 380.04126953 -771.81689453 379.03222656 C-775.84567474 363.5873093 -776.46532769 348.36991649 -776.5 332.5 C-776.50467285 331.57441284 -776.5093457 330.64882568 -776.51416016 329.69519043 C-776.54758311 312.57731914 -774.74417171 296.15957725 -769.6875 279.75 C-769.38191162 278.73550781 -769.07632324 277.72101563 -768.76147461 276.67578125 C-760.18150303 248.72132132 -745.99829208 222.8393545 -726.12109375 201.30859375 C-724.17001655 199.18504564 -722.30031718 197.01324319 -720.4375 194.8125 C-716.9224469 190.8032671 -713.10865718 187.39013208 -709 184 C-708.50032715 183.57734863 -708.0006543 183.15469727 -707.48583984 182.71923828 C-686.4096498 164.925558 -661.68052785 150.45575951 -635 143 C-633.23269531 142.47019531 -633.23269531 142.47019531 -631.4296875 141.9296875 C-615.09914674 137.24895926 -598.87833622 135.47540952 -581.92138672 135.55395508 C-579.13303823 135.56247544 -576.34674281 135.53353093 -573.55859375 135.50195312 C-556.98184755 135.43716289 -541.06305091 138.09659647 -525.1875 142.875 C-524.32044434 143.13200684 -523.45338867 143.38901367 -522.56005859 143.65380859 C-520.03328628 144.41598406 -517.51533101 145.20095785 -515 146 C-514.30632324 146.21849609 -513.61264648 146.43699219 -512.89794922 146.66210938 C-479.08859486 157.58732953 -446.49932936 180.74487398 -425 209 C-424.16187571 210.06255646 -423.3219545 211.1236974 -422.48046875 212.18359375 C-417.20970392 218.86654065 -412.41280148 225.70864921 -408 233 C-404.60997279 231.70891809 -401.47839169 230.24218459 -398.32421875 228.453125 C-397.42662842 227.94539551 -396.52903809 227.43766602 -395.60424805 226.91455078 C-394.64172119 226.36524902 -393.67919434 225.81594727 -392.6875 225.25 C-391.67276611 224.67362793 -390.65803223 224.09725586 -389.61254883 223.50341797 C-380.4219122 218.26959599 -371.28811786 212.93975958 -362.16015625 207.59765625 C-352.56057762 201.98321325 -342.91864049 196.4419968 -333.28222656 190.89111328 C-327.85340062 187.76319854 -322.42677993 184.63146269 -317 181.5 C-310.47766725 177.73636081 -303.95486238 173.97355378 -297.4296875 170.21484375 C-286.97793721 164.19252625 -276.53706885 158.15319743 -266.125 152.0625 C-256.30861542 146.32246579 -246.44534506 140.66676663 -236.56738281 135.03369141 C-225.43131115 128.68237863 -214.32652203 122.27749144 -203.2265625 115.86328125 C-199.96475993 113.9796495 -196.70138156 112.09877679 -193.4375 110.21875 C-182.98287049 104.19560261 -172.53951558 98.15477555 -162.125 92.0625 C-152.85500223 86.64078822 -143.54168248 81.29795085 -134.21154785 75.98077393 C-125.0871716 70.77954871 -115.99867226 65.51972122 -106.93310547 60.21655273 C-96.40915375 54.06233258 -85.84619863 47.97630004 -75.28222656 41.89111328 C-68.7764039 38.1426677 -62.27355917 34.38905819 -55.77026367 30.63623047 C-50.24262719 27.44671205 -44.71400619 24.25892179 -39.18359375 21.07421875 C-38.06283447 20.428479 -36.9420752 19.78273926 -35.78735352 19.11743164 C-33.58119876 17.84641252 -31.37466522 16.57605059 -29.16772461 15.30639648 C-24.32372328 12.51514639 -19.49124881 9.7091211 -14.6953125 6.8359375 C-13.90326416 6.36260986 -13.11121582 5.88928223 -12.29516602 5.40161133 C-10.85458609 4.53757842 -9.41730227 3.66801461 -7.98413086 2.79174805 C-3.33001281 0 -3.33001281 0 0 0 Z " fill="#00599C" transform="translate(1314,402)"/>
<path d="M0 0 C1.43738525 0.41306396 1.43738525 0.41306396 2.90380859 0.83447266 C52.36458351 15.07492908 100.01747086 38.31398582 140 71 C140.93070313 71.74121094 141.86140625 72.48242188 142.8203125 73.24609375 C148.56013947 77.85874022 154.04974264 82.69499849 159.46484375 87.68359375 C161.52643053 89.56729323 163.61720066 91.38636708 165.75 93.1875 C175.15353261 101.36448488 183.98488776 110.46660658 192 120 C192.85335937 120.96421875 193.70671875 121.9284375 194.5859375 122.921875 C207.27742756 137.31351767 218.25613715 152.96526988 228.71191406 169.03173828 C229.90434787 170.85383861 231.11586207 172.66118497 232.3359375 174.46484375 C232.98820312 175.44582031 233.64046875 176.42679688 234.3125 177.4375 C235.14201172 178.67306641 235.14201172 178.67306641 235.98828125 179.93359375 C237 182 237 182 236 185 C233.50433944 186.55482402 231.0354421 187.94808334 228.4375 189.3125 C226.7786002 190.20844659 225.12111882 191.10702299 223.46484375 192.0078125 C222.13235596 192.73145996 222.13235596 192.73145996 220.77294922 193.46972656 C215.96521693 196.12291075 211.23521152 198.90757042 206.5 201.6875 C198.05781275 206.63252789 189.60195819 211.55228965 181.125 216.4375 C180.04541016 217.05971436 178.96582031 217.68192871 177.85351562 218.32299805 C175.6631748 219.58511517 173.47274498 220.84707785 171.28222656 222.10888672 C165.85340058 225.23680148 160.42680719 228.36858448 155 231.5 C152.83334417 232.75001879 150.6666775 234.00001878 148.5 235.25 C147.4275 235.86875 146.355 236.4875 145.25 237.125 C135.5 242.75 135.5 242.75 132.24902344 244.62548828 C130.08552524 245.87371034 127.92211357 247.12208239 125.75878906 248.37060547 C120.29434983 251.52405256 114.82836355 254.67476096 109.359375 257.8203125 C108.26447754 258.45074463 107.16958008 259.08117676 106.04150391 259.73071289 C103.86774963 260.98172605 101.69296344 262.23094808 99.51708984 263.47827148 C94.17271644 266.55126578 88.86890362 269.67319339 83.6171875 272.90234375 C82.60688477 273.51835449 81.59658203 274.13436523 80.55566406 274.76904297 C78.64552861 275.93797458 76.74333656 277.12001791 74.85058594 278.31689453 C74.0052832 278.8323584 73.15998047 279.34782227 72.2890625 279.87890625 C71.55381348 280.3385376 70.81856445 280.79816895 70.06103516 281.27172852 C68 282 68 282 65.85522461 281.30541992 C63.07465784 279.34888742 61.63823464 276.62124936 59.9375 273.75 C50.13006063 257.92044874 37.62235015 242.62289371 23 231 C22.04867187 230.23429688 21.09734375 229.46859375 20.1171875 228.6796875 C-2.32948055 210.86109169 -27.18028089 198.86390646 -54.5625 190.75 C-55.33980469 190.51563232 -56.11710937 190.28126465 -56.91796875 190.03979492 C-71.88094394 185.79490365 -86.62563518 184.50423305 -102.11303711 184.60888672 C-104.93197126 184.62496846 -107.74946819 184.60893496 -110.56835938 184.58984375 C-126.93751626 184.56906369 -142.56924697 186.47790765 -158.25 191.3125 C-159.26956787 191.62098877 -160.28913574 191.92947754 -161.33959961 192.24731445 C-188.85777676 200.72166467 -213.96145492 214.55638512 -235.50048828 233.67236328 C-236.96666777 234.97048833 -238.44997837 236.24918243 -239.93359375 237.52734375 C-246.3720715 243.17998788 -251.73580382 249.25676903 -257 256 C-257.66644531 256.80050781 -258.33289063 257.60101562 -259.01953125 258.42578125 C-264.65773774 265.22054292 -269.41995478 272.47201434 -274 280 C-274.37801758 280.61617187 -274.75603516 281.23234375 -275.14550781 281.8671875 C-287.25132131 301.79887702 -295.01730484 324.07072613 -299 347 C-299.25269653 348.17937134 -299.25269653 348.17937134 -299.51049805 349.38256836 C-301.51762038 359.5406424 -301.44380253 369.74797558 -301.4375 380.0625 C-301.43723816 381.04042511 -301.43697632 382.01835022 -301.43670654 383.02590942 C-301.31368488 421.88130812 -290.45445413 461.44062833 -267 493 C-266.61489258 493.52352051 -266.22978516 494.04704102 -265.83300781 494.58642578 C-260.88040286 501.29266921 -255.68377646 507.66545119 -250.0078125 513.78125 C-248.60223709 515.33449287 -247.25562832 516.9422066 -245.95703125 518.5859375 C-243.67398395 521.40215153 -241.19210191 523.59030132 -238.4375 525.9296875 C-236.6677797 527.43281532 -234.92053067 528.96252681 -233.1875 530.5078125 C-213.38328363 548.02314713 -189.14223296 561.01600947 -164 569 C-163.25975586 569.23799316 -162.51951172 569.47598633 -161.75683594 569.72119141 C-143.39689405 575.51336372 -124.94824077 577.5822132 -105.75 577.4375 C-104.85924774 577.43379395 -103.96849548 577.43008789 -103.05075073 577.42626953 C-72.73985201 577.24753803 -44.23113768 570.51857756 -17 557 C-16.35562988 556.68595215 -15.71125977 556.3719043 -15.04736328 556.04833984 C2.31155143 547.51689054 17.49243732 535.92845014 31.75 522.9375 C32.26908936 522.46707275 32.78817871 521.99664551 33.32299805 521.51196289 C40.12614208 515.21475743 45.89051326 508.0451342 51.5 500.6875 C52.34582642 499.58643921 52.34582642 499.58643921 53.20874023 498.46313477 C57.03409585 493.42901751 60.44258665 488.32928166 63.53515625 482.80859375 C64.01855469 482.21175781 64.50195312 481.61492187 65 481 C69.25688922 481 70.49422781 481.5641162 74.0859375 483.60546875 C75.58821899 484.45226196 75.58821899 484.45226196 77.12084961 485.31616211 C78.19471924 485.93370361 79.26858887 486.55124512 80.375 487.1875 C81.49334229 487.82244385 82.61168457 488.4573877 83.76391602 489.11157227 C91.76580564 493.67154545 99.71003935 498.32808676 107.62548828 503.03637695 C117.91900702 509.15891256 128.30375901 515.12156896 138.68554688 521.09277344 C144.12650557 524.2236492 149.56307989 527.36211805 155 530.5 C161.52229998 534.26369591 168.04513767 538.02644625 174.5703125 541.78515625 C186.19913165 548.48554227 197.81241454 555.211239 209.40087891 561.98120117 C218.58580759 567.34640259 227.7899107 572.67813236 237 578 C235.29137582 583.00596909 232.50884413 587.2526744 229.6875 591.6875 C228.89061768 592.94119385 228.89061768 592.94119385 228.07763672 594.22021484 C216.29975772 612.55783787 202.95391651 629.69176186 188.140625 645.67578125 C186.31041913 647.66295733 184.55485437 649.68645404 182.8125 651.75 C174.64287213 661.14507205 165.55212309 670.02159834 156 678 C154.68128906 679.15242188 154.68128906 679.15242188 153.3359375 680.328125 C127.62424199 702.69960513 98.63803529 721.34550599 67.92285156 736.07324219 C65.99008443 737.00477901 64.06919384 737.95804308 62.1484375 738.9140625 C-17.58953466 778.11578521 -111.57176336 785.89885101 -234.42626953 754.83447266 C-262.64454721 745.0311788 -289.76713066 731.99640379 -315 716 C-315.61020996 715.61408691 -316.22041992 715.22817383 -316.84912109 714.83056641 C-320.29100101 712.63403041 -323.65624092 710.34252049 -327 708 C-328.07765625 707.2575 -329.1553125 706.515 -330.265625 705.75 C-338.90147427 699.74022121 -347.05987138 693.21283968 -355.16503906 686.51025391 C-356.83749088 685.13375219 -358.52032507 683.77205864 -360.2109375 682.41796875 C-364.83509956 678.6996357 -369.21403267 674.93638678 -373.3359375 670.66796875 C-375.09033743 668.90945051 -376.92433565 667.30109065 -378.8125 665.6875 C-385.68981067 659.74315783 -392.0900111 653.26334363 -397.98828125 646.34765625 C-399.57023903 644.50152688 -401.17198426 642.68252912 -402.79296875 640.87109375 C-415.79223388 626.25249391 -427.5772149 610.55766407 -438 594 C-438.45407227 593.27973633 -438.90814453 592.55947266 -439.37597656 591.81738281 C-463.47921798 553.27501232 -482.13577216 510.34957897 -491.43261719 465.72167969 C-491.96347369 463.17521314 -492.52932834 460.63898282 -493.1015625 458.1015625 C-513.06856443 366.05741573 -494.20772194 268.93688701 -441.8125 173.8125 C-439.90405733 170.85507499 -437.96086337 167.92287218 -436 165 C-435.52965332 164.29311035 -435.05930664 163.5862207 -434.57470703 162.85791016 C-425.22957163 148.85472314 -414.9878398 135.74521169 -404 123 C-403.39671875 122.29488281 -402.7934375 121.58976563 -402.171875 120.86328125 C-392.46260934 109.62221397 -382.38925057 98.51611047 -371.109375 88.83203125 C-368.82370454 86.84688413 -366.60298622 84.7996017 -364.375 82.75 C-358.17410997 77.16446547 -351.63479898 72.05508493 -345 67 C-344.41621582 66.55398438 -343.83243164 66.10796875 -343.23095703 65.6484375 C-289.26042328 24.64222247 -225.18347961 -1.98923622 -158 -11 C-156.8749707 -11.15243164 -155.74994141 -11.30486328 -154.59082031 -11.46191406 C-103.3202058 -18.10571326 -49.63713489 -14.74204146 0 0 Z " fill="#FEFEFE" transform="translate(840,354)"/>
<path d="M0 0 C1.43682416 2.08059603 2.65826777 4.1061515 3.875 6.3125 C16.6773367 28.54487684 32.59083005 48.65259294 49.81640625 67.59765625 C51.31221804 69.24331681 52.79877532 70.89742339 54.27734375 72.55859375 C60.78218655 79.86403259 67.46553876 86.79333076 74.890625 93.16796875 C77.17629546 95.15311587 79.39701378 97.2003983 81.625 99.25 C87.82589003 104.83553453 94.36520102 109.94491507 101 115 C101.58378418 115.44601562 102.16756836 115.89203125 102.76904297 116.3515625 C176.01175034 172.00056205 264.78077262 198.31736068 386.8359375 194.03125 C411.49351024 190.58588913 435.20128928 185.29680593 459 178 C459.99418945 177.69980957 460.98837891 177.39961914 462.01269531 177.09033203 C477.1220152 172.48658515 491.56321263 166.37634843 506 160 C506.80421387 159.64824707 507.60842773 159.29649414 508.43701172 158.93408203 C541.48857829 144.38489031 571.74269924 123.51396479 599 100 C599.73992188 99.36191406 600.47984375 98.72382812 601.2421875 98.06640625 C603.17164366 96.38878673 605.087332 94.69672162 607 93 C607.7425 92.3503125 608.485 91.700625 609.25 91.03125 C619.10251574 82.315563 628.53988752 73.08209483 637 63 C638.24330078 61.55560547 638.24330078 61.55560547 639.51171875 60.08203125 C653.81192263 43.43350337 666.75626764 25.78901359 678.07958984 6.97998047 C678.54961426 6.21314941 679.01963867 5.44631836 679.50390625 4.65625 C679.91455322 3.97369141 680.3252002 3.29113281 680.74829102 2.58789062 C682 1 682 1 685 0 C687.49829102 1.1171875 687.49829102 1.1171875 690.50390625 2.875 C691.62361816 3.52283447 692.74333008 4.17066895 693.89697266 4.83813477 C695.11890068 5.55861139 696.3407408 6.27923712 697.5625 7 C698.8280395 7.73658242 700.09416126 8.47216527 701.36083984 9.20678711 C703.9712403 10.72249752 706.5784174 12.24353766 709.18310547 13.76904297 C713.75608734 16.44552775 718.34830839 19.08826268 722.94116211 21.73046875 C726.15289874 23.57855338 729.3619926 25.4311472 732.5703125 27.28515625 C739.04510022 31.02651656 745.52236343 34.76357483 752 38.5 C754.1666775 39.74998122 756.33334417 40.99998121 758.5 42.25 C760.10875 43.178125 760.10875 43.178125 761.75 44.125 C773.66666667 51 785.58333333 57.875 797.5 64.75 C798.57266113 65.36883057 799.64532227 65.98766113 800.75048828 66.62524414 C802.91557071 67.87435518 805.08060982 69.12354129 807.24560547 70.37280273 C812.68615706 73.51202309 818.12747216 76.64990563 823.5703125 79.78515625 C834.02206199 85.80747329 844.46299548 91.84669337 854.875 97.9375 C864.13629136 103.35411968 873.44047244 108.69266901 882.76226807 114.00411987 C894.89191145 120.9169824 906.95632651 127.93830139 919 135 C916.60830846 140.10498235 914.01622078 144.63576155 910.5625 149.125 C909.45068359 150.58292969 909.45068359 150.58292969 908.31640625 152.0703125 C896.30202707 167.26556441 881.12867986 175.70140304 864.44335938 185.06054688 C858.93638655 188.16231886 853.46986702 191.33340931 848 194.5 C845.83353946 195.75035722 843.66687241 197.00035668 841.5 198.25 C840.4275 198.86875 839.355 199.4875 838.25 200.125 C802.5 220.75 802.5 220.75 799.24951172 222.62524414 C797.08442929 223.87435518 794.91939018 225.12354129 792.75439453 226.37280273 C787.31384294 229.51202309 781.87252784 232.64990563 776.4296875 235.78515625 C765.97793801 241.80747329 755.53700452 247.84669337 745.125 253.9375 C735.85500223 259.35921178 726.54168248 264.70204915 717.21154785 270.01922607 C708.0871716 275.22045129 698.99867226 280.48027878 689.93310547 285.78344727 C679.40915375 291.93766742 668.84619863 298.02369996 658.28222656 304.10888672 C652.85340058 307.23680148 647.42680719 310.36858448 642 313.5 C639.83334417 314.75001879 637.6666775 316.00001878 635.5 317.25 C634.4275 317.86875 633.355 318.4875 632.25 319.125 C544.5 369.75 544.5 369.75 541.24609375 371.62719727 C539.0923828 372.86976019 536.93873633 374.11243489 534.78515625 375.35522461 C529.76315738 378.25314623 524.74057193 381.15003349 519.71557617 384.04275513 C517.94954478 385.05947198 516.18372569 386.07655658 514.41796875 387.09375 C512.21265845 388.36400873 510.00695784 389.63359018 507.80078125 390.90234375 C503.148039 393.58318116 498.51057661 396.28230283 493.9140625 399.05859375 C488.7930794 402.14576546 483.59128422 405.07762115 478.375 408 C469.31707112 413.09632437 460.32184271 418.29063721 451.35522461 423.5456543 C442.81297543 428.5444622 434.22052103 433.451774 425.61901855 438.34753418 C418.8888355 442.17995505 412.18089134 446.03925928 405.5625 450.0625 C401.00519695 452.82128648 396.42102492 455.50231274 391.75 458.0625 C390.19539062 458.91521484 390.19539062 458.91521484 388.609375 459.78515625 C386 461 386 461 383 461 C383 461.66 383 462.32 383 463 C379.48024931 463.81723775 375.95902137 464.62792922 372.4375 465.4375 C371.44685547 465.66759766 370.45621094 465.89769531 369.43554688 466.13476562 C335.53136083 473.90682156 305.52432813 467.21854035 276 450 C275.29681641 449.59120605 274.59363281 449.18241211 273.86914062 448.76123047 C270.47275631 446.78165662 267.087617 444.78375493 263.70703125 442.77734375 C258.01912198 439.4091607 252.29025166 436.1123209 246.5625 432.8125 C244.90226807 431.85585449 244.90226807 431.85585449 243.20849609 430.87988281 C240.93744738 429.57158614 238.66628757 428.26348228 236.39501953 426.95556641 C230.9283002 423.80667946 225.46425113 420.65316736 220 417.5 C217.83334689 416.2499765 215.66668021 414.99997653 213.5 413.75 C183.16666667 396.25 152.83333333 378.75 122.5 361.25 C121.42733887 360.63116943 120.35467773 360.01233887 119.24951172 359.37475586 C117.08442929 358.12564482 114.91939018 356.87645871 112.75439453 355.62719727 C107.31384294 352.48797691 101.87252784 349.35009437 96.4296875 346.21484375 C80.28530569 336.91282764 64.15007342 327.59337356 48.109375 318.11328125 C47.35599854 317.66831299 46.60262207 317.22334473 45.82641602 316.76489258 C44.47948248 315.96835535 43.13348066 315.17023846 41.78881836 314.36987305 C38.15640477 312.22031337 34.48431502 310.163745 30.7734375 308.15234375 C24.76691996 304.89291331 18.84949475 301.48971037 12.9375 298.0625 C11.22329567 297.0709794 9.50908991 296.07946127 7.7947998 295.08808899 C6.61899442 294.40800405 5.44329501 293.72773586 4.2677002 293.04728699 C0.30478414 290.75352725 -3.66113304 288.46503983 -7.62890625 286.1796875 C-18.43338157 279.95645215 -29.22788656 273.71661646 -40 267.4375 C-40.9605127 266.87796631 -41.92102539 266.31843262 -42.91064453 265.74194336 C-47.29364996 263.18358455 -51.66066189 260.60444773 -56 257.97265625 C-60.33922588 255.35858217 -64.76191811 252.93045311 -69.21826172 250.52294922 C-73.8891478 247.96572723 -78.47179932 245.26021632 -83.0625 242.5625 C-85.18330004 241.32111267 -87.30440427 240.08024491 -89.42578125 238.83984375 C-90.51068848 238.20546387 -91.5955957 237.57108398 -92.71337891 236.91748047 C-109.55553292 227.09143103 -126.48706136 217.41907998 -143.421875 207.75390625 C-145.03485474 206.83315308 -145.03485474 206.83315308 -146.68041992 205.89379883 C-148.97421365 204.58520443 -151.26861565 203.27772424 -153.5637207 201.97143555 C-160.64260981 197.93926096 -167.68568898 193.85241004 -174.6875 189.6875 C-180.18098808 186.41989155 -185.67630852 183.16456057 -191.25 180.03515625 C-203.90026669 172.9193042 -215.44583049 165.15832636 -225 154 C-225 153.34 -225 152.68 -225 152 C-225.66 152 -226.32 152 -227 152 C-228.4375 150.20703125 -228.4375 150.20703125 -230 147.8125 C-230.515625 147.03519531 -231.03125 146.25789063 -231.5625 145.45703125 C-233 143 -233 143 -234.0625 140.26171875 C-234.77772993 137.83821336 -234.77772993 137.83821336 -237 137 C-237 136.01 -237 135.02 -237 134 C-236.1219873 133.73155273 -235.24397461 133.46310547 -234.33935547 133.18652344 C-231.14799229 132.0525839 -228.48848908 130.72070877 -225.5703125 129.015625 C-224.5405127 128.41758057 -223.51071289 127.81953613 -222.44970703 127.20336914 C-221.35255371 126.55875732 -220.25540039 125.91414551 -219.125 125.25 C-217.96107166 124.5716745 -216.79684117 123.89386723 -215.63232422 123.21655273 C-212.65332543 121.48216421 -209.67806456 119.74148059 -206.70410156 117.99847412 C-202.18069042 115.34809866 -197.65221817 112.7063649 -193.125 110.0625 C-192.15449707 109.49499023 -191.18399414 108.92748047 -190.18408203 108.34277344 C-181.89038013 103.50015122 -173.55378736 98.7344412 -165.20953369 93.97976685 C-157.11292157 89.36515971 -149.04211199 84.70915114 -141 80 C-132.36502443 74.94369077 -123.69393681 69.95392878 -115 65 C-105.27875494 59.46014067 -95.59105132 53.86625068 -85.93310547 48.21655273 C-78.67788243 43.97382709 -71.40643928 39.76006757 -64.125 35.5625 C-63.04750488 34.94125244 -61.97000977 34.32000488 -60.85986328 33.67993164 C-55.35861973 30.50922982 -49.85560736 27.34161733 -44.3515625 24.17578125 C-42.1509844 22.90895364 -39.95046308 21.64202739 -37.75 20.375 C-36.68402588 19.76205078 -35.61805176 19.14910156 -34.51977539 18.51757812 C-29.18236337 15.44129756 -23.86635939 12.33468307 -18.58203125 9.16796875 C-17.5672168 8.56098145 -16.55240234 7.95399414 -15.50683594 7.32861328 C-13.58855563 6.17796322 -11.67365266 5.02165794 -9.76269531 3.85888672 C-8.91416992 3.34986816 -8.06564453 2.84084961 -7.19140625 2.31640625 C-6.08067749 1.64266968 -6.08067749 1.64266968 -4.94750977 0.95532227 C-3 0 -3 0 0 0 Z " fill="#004482" transform="translate(394,933)"/>
<path d="M0 0 C2.78834849 0.00852036 5.57464391 -0.02042415 8.36279297 -0.05200195 C24.93953916 -0.11679219 40.85833581 2.54264139 56.73388672 7.32104492 C57.60094238 7.57805176 58.46799805 7.83505859 59.36132812 8.09985352 C61.88810044 8.86202899 64.40605571 9.64700277 66.92138672 10.44604492 C67.61506348 10.66454102 68.30874023 10.88303711 69.0234375 11.1081543 C102.83279186 22.03337445 135.42205736 45.1909189 156.92138672 73.44604492 C157.75951101 74.50860138 158.59943222 75.56974232 159.44091797 76.62963867 C173.92138672 94.98439872 173.92138672 94.98439872 173.92138672 99.44604492 C173.20934082 99.85218018 172.49729492 100.25831543 171.76367188 100.67675781 C150.47306927 112.8236033 129.20550527 125.00858149 108.04638672 137.38354492 C98.77633157 142.80515988 89.46307022 148.14809349 80.13293457 153.465271 C71.9956865 158.10379737 63.88167841 162.77984184 55.79638672 167.50854492 C37.93268214 177.95617725 19.99405461 188.27170673 2.01721191 198.52313232 C-7.02154571 203.67920975 -16.0212077 208.89914804 -25.00097656 214.15722656 C-32.66463784 218.63794005 -40.36562965 223.05107721 -48.07861328 227.44604492 C-57.79985834 232.98590425 -67.48756197 238.57979424 -77.14550781 244.22949219 C-87.66945953 250.38371234 -98.23241466 256.46974488 -108.79638672 262.55493164 C-115.29284278 266.29798048 -121.78682094 270.04533109 -128.27978516 273.79443359 C-133.35555573 276.72457258 -138.43319308 279.65131869 -143.51776123 282.56616211 C-145.91901558 283.94301018 -148.31916854 285.32177184 -150.71923828 286.70068359 C-152.41347931 287.67301196 -154.10930909 288.64257033 -155.80517578 289.61206055 C-156.83126953 290.20180664 -157.85736328 290.79155273 -158.91455078 291.39916992 C-159.81737793 291.91640625 -160.72020508 292.43364258 -161.65039062 292.96655273 C-163.90912211 294.34277562 -165.99526806 295.81939809 -168.07861328 297.44604492 C-185.52200705 265.48650504 -194.4743527 233.23519687 -194.57861328 196.94604492 C-194.58346741 196.02000458 -194.58832153 195.09396423 -194.59332275 194.13986206 C-194.62636644 177.02266096 -192.82257225 160.60493181 -187.76611328 144.19604492 C-187.4605249 143.18155273 -187.15493652 142.16706055 -186.84008789 141.12182617 C-178.26011631 113.16736624 -164.07690536 87.28539942 -144.19970703 65.75463867 C-142.24862983 63.63109056 -140.37893046 61.45928812 -138.51611328 59.25854492 C-135.00106018 55.24931202 -131.18727046 51.836177 -127.07861328 48.44604492 C-126.57894043 48.02339355 -126.07926758 47.60074219 -125.56445312 47.1652832 C-104.48826308 29.37160292 -79.75914113 14.90180444 -53.07861328 7.44604492 C-51.90041016 7.0928418 -50.72220703 6.73963867 -49.50830078 6.37573242 C-33.17776002 1.69500418 -16.9569495 -0.07854556 0 0 Z " fill="#659AD2" transform="translate(732.07861328125,537.553955078125)"/>
<path d="M0 0 C4.82629387 2.35569106 9.42077388 5.0383967 14.03125 7.7890625 C16.19492549 9.06576028 18.35900166 10.34177921 20.5234375 11.6171875 C21.63944336 12.27654297 22.75544922 12.93589844 23.90527344 13.61523438 C29.3025133 16.79081606 34.72889 19.9153281 40.15625 23.0390625 C42.34116376 24.29814598 44.52605949 25.55726073 46.7109375 26.81640625 C47.79600586 27.44144043 48.88107422 28.06647461 49.99902344 28.71044922 C55.42784942 31.83836398 60.85444281 34.97014698 66.28125 38.1015625 C68.44790583 39.35158129 70.6145725 40.60158128 72.78125 41.8515625 C85.78125 49.3515625 98.78125 56.8515625 111.78125 64.3515625 C112.85487793 64.97095703 113.92850586 65.59035156 115.03466797 66.22851562 C117.18996311 67.4719676 119.34523673 68.71545686 121.50048828 69.95898438 C126.50462674 72.84619125 131.5089552 75.7330668 136.51409912 78.61853027 C138.26466241 79.62775354 140.01515411 80.63710086 141.765625 81.64648438 C143.94517165 82.9032391 146.12484832 84.15976836 148.3046875 85.41601562 C155.30986283 89.45572692 162.29983507 93.5209309 169.28125 97.6015625 C161.66479745 117.31533973 142.65169868 137.64543459 126.28125 150.6015625 C125.33121094 151.36597656 124.38117188 152.13039063 123.40234375 152.91796875 C104.16589461 168.19249525 82.68813373 180.09050348 59.28125 187.6015625 C58.44094238 187.87339355 57.60063477 188.14522461 56.73486328 188.42529297 C54.11155331 189.25942395 51.48078883 190.06197828 48.84375 190.8515625 C47.70292969 191.20311401 47.70292969 191.20311401 46.5390625 191.56176758 C31.47938278 195.86916981 15.94855313 197.1081471 0.35400391 196.99267578 C-2.21896307 196.97656117 -4.79036034 196.99266731 -7.36328125 197.01171875 C-23.60247351 197.03417107 -39.48517522 195.1258311 -55.03125 190.2890625 C-56.04630615 189.98057373 -57.0613623 189.67208496 -58.10717773 189.35424805 C-86.41524463 180.59775767 -111.58077592 166.20532113 -133.71875 146.6015625 C-134.6365625 145.80621094 -135.554375 145.01085937 -136.5 144.19140625 C-141.6866068 139.63750299 -146.35079933 134.94016887 -150.71875 129.6015625 C-151.15445313 129.07820312 -151.59015625 128.55484375 -152.0390625 128.015625 C-157.69587652 121.20929797 -163.14496234 114.29939893 -168.03125 106.9140625 C-168.42231934 106.33833496 -168.81338867 105.76260742 -169.21630859 105.16943359 C-171.75373659 101.21330455 -171.75373659 101.21330455 -171.60449219 98.60375977 C-170.34569787 95.75828783 -168.72058898 95.10023772 -165.99609375 93.640625 C-164.99521729 93.09414307 -163.99434082 92.54766113 -162.96313477 91.98461914 C-161.87186279 91.40446045 -160.78059082 90.82430176 -159.65625 90.2265625 C-157.35049554 88.96940285 -155.04583345 87.71023792 -152.7421875 86.44921875 C-151.8589959 85.96856209 -151.8589959 85.96856209 -150.95796204 85.47819519 C-145.16486606 82.32029836 -139.46799113 79.00856078 -133.78125 75.6640625 C-131.79056055 74.49706149 -129.79967317 73.33039805 -127.80859375 72.1640625 C-126.8119873 71.58011719 -125.81538086 70.99617187 -124.78857422 70.39453125 C-119.4854775 67.29719212 -114.16480065 64.23042392 -108.84375 61.1640625 C-107.76359619 60.54152588 -106.68344238 59.91898926 -105.57055664 59.27758789 C-103.38078666 58.01579424 -101.19092645 56.75415716 -99.00097656 55.49267578 C-93.57215058 52.36476102 -88.14555719 49.23297802 -82.71875 46.1015625 C-80.55209417 44.85154371 -78.3854275 43.60154372 -76.21875 42.3515625 C-75.14625 41.7328125 -74.07375 41.1140625 -72.96875 40.4765625 C-63.21875 34.8515625 -63.21875 34.8515625 -59.96606445 32.97509766 C-57.80825197 31.73014968 -55.65053647 30.4850336 -53.49291992 29.23974609 C-47.94158408 26.03603599 -42.38838459 22.8356262 -36.83203125 19.640625 C-35.70120117 18.98956787 -34.57037109 18.33851074 -33.40527344 17.66772461 C-31.18462797 16.39013039 -28.96265576 15.11483905 -26.73925781 13.84204102 C-22.09170537 11.17245199 -17.47564942 8.48568164 -12.96484375 5.58984375 C-12.27543701 5.1520459 -11.58603027 4.71424805 -10.87573242 4.26318359 C-9.12964446 3.14234311 -7.39984869 1.99622644 -5.671875 0.84765625 C-2.71875 -0.3984375 -2.71875 -0.3984375 0 0 Z " fill="#004482" transform="translate(736.71875,735.3984375)"/>
<path d="M0 0 C14.52 0 29.04 0 44 0 C44 14.52 44 29.04 44 44 C58.52 44 73.04 44 88 44 C88 58.52 88 73.04 88 88 C73.48 88 58.96 88 44 88 C44 102.52 44 117.04 44 132 C29.48 132 14.96 132 0 132 C0 117.48 0 102.96 0 88 C-14.52 88 -29.04 88 -44 88 C-44 73.48 -44 58.96 -44 44 C-29.48 44 -14.96 44 0 44 C0 29.48 0 14.96 0 0 Z " fill="#FCFDFE" transform="translate(1207,669)"/>
<path d="M0 0 C14.52 0 29.04 0 44 0 C44 14.52 44 29.04 44 44 C58.52 44 73.04 44 88 44 C88 58.52 88 73.04 88 88 C73.48 88 58.96 88 44 88 C44 102.52 44 117.04 44 132 C29.48 132 14.96 132 0 132 C0 117.48 0 102.96 0 88 C-14.52 88 -29.04 88 -44 88 C-44 73.48 -44 58.96 -44 44 C-29.48 44 -14.96 44 0 44 C0 29.48 0 14.96 0 0 Z " fill="#FDFEFE" transform="translate(1042,669)"/>
</svg>
