<?xml version="1.0" standalone="no"?>
<!DOCTYPE svg PUBLIC "-//W3C//DTD SVG 20010904//EN"
 "http://www.w3.org/TR/2001/REC-SVG-20010904/DTD/svg10.dtd">
<svg version="1.0" xmlns="http://www.w3.org/2000/svg"
 width="300.000000pt" height="300.000000pt" viewBox="0 0 300.000000 300.000000"
 preserveAspectRatio="xMidYMid meet">

<g transform="translate(0.000000,300.000000) scale(0.100000,-0.100000)"
fill="#000000" stroke="none">
<path d="M798 2627 l-587 -342 -1 -687 0 -687 182 106 c101 58 204 117 230
132 l48 26 0 277 c0 178 4 279 10 283 9 6 479 -260 563 -317 l27 -19 0 -345
c0 -321 -1 -344 -17 -344 -10 0 -121 60 -247 134 l-229 133 -161 -94 c-88 -51
-191 -110 -227 -130 l-67 -37 589 -343 589 -344 589 344 589 343 -67 37 c-36
20 -139 79 -227 130 l-161 94 -229 -133 c-126 -74 -237 -134 -246 -134 -17 0
-18 23 -18 344 l0 345 28 19 c83 57 553 323 562 317 6 -4 10 -105 10 -283 l1
-277 181 -105 c100 -58 204 -117 230 -133 l48 -27 0 687 -1 688 -541 315
c-297 173 -563 328 -589 343 l-49 29 0 -264 0 -263 233 -136 c165 -96 233
-141 235 -155 2 -16 -47 -48 -276 -182 -153 -89 -289 -162 -302 -162 -13 0
-149 73 -302 162 -229 134 -278 166 -276 182 2 14 70 59 235 155 l233 136 0
263 c0 144 -1 262 -2 262 -2 0 -267 -155 -590 -343z"/>
</g>
</svg>
